/* XPM */
static char * collectible_xpm[] = {
"32 32 168 2",
"  	c #289816",
". 	c #289716",
"+ 	c #279318",
"@ 	c #23851D",
"# 	c #1C6B24",
"$ 	c #144829",
"% 	c #0E252B",
"& 	c #0C122C",
"* 	c #0C0F2C",
"= 	c #0D172C",
"- 	c #113A2A",
"; 	c #195F26",
"> 	c #217D20",
", 	c #268F1A",
"' 	c #289617",
") 	c #269219",
"! 	c #2C8D1E",
"~ 	c #378425",
"{ 	c #42732E",
"] 	c #4C5F36",
"^ 	c #505139",
"/ 	c #514D3A",
"( 	c #514E3A",
"_ 	c #4E5837",
": 	c #456B31",
"< 	c #3A7D28",
"[ 	c #2E8A20",
"} 	c #22831E",
"| 	c #398027",
"1 	c #5A8535",
"2 	c #768843",
"3 	c #898A4C",
"4 	c #928A52",
"5 	c #958B53",
"6 	c #958A53",
"7 	c #948A53",
"8 	c #8C894E",
"9 	c #7B8646",
"0 	c #5E8238",
"a 	c #1D6D23",
"b 	c #456D30",
"c 	c #788744",
"d 	c #A1A157",
"e 	c #BCB364",
"f 	c #C9BC69",
"g 	c #CCBE6B",
"h 	c #CBBD6B",
"i 	c #CABC6A",
"j 	c #BEB465",
"k 	c #A4A258",
"l 	c #175727",
"m 	c #4E5937",
"n 	c #8B8A4E",
"o 	c #BDB464",
"p 	c #DDD073",
"q 	c #ECDD7A",
"r 	c #EFE07C",
"s 	c #EFDF7B",
"t 	c #EDDD7A",
"u 	c #DED073",
"v 	c #154A28",
"w 	c #938B53",
"x 	c #C9BD6B",
"y 	c #EDDE7B",
"z 	c #FCEC82",
"A 	c #FEEF84",
"B 	c #FDEE83",
"C 	c #CABD6B",
"D 	c #948B53",
"E 	c #958C53",
"F 	c #CCBF6C",
"G 	c #EFE17D",
"H 	c #FEF084",
"I 	c #FFF386",
"J 	c #FFF285",
"K 	c #514C3A",
"L 	c #958952",
"M 	c #CBBC6A",
"N 	c #EFDD7A",
"O 	c #FDEB81",
"P 	c #FFEE83",
"Q 	c #FFED82",
"R 	c #14482A",
"S 	c #514838",
"T 	c #95824E",
"U 	c #CBB162",
"V 	c #EFD171",
"W 	c #FDDE78",
"X 	c #FFE179",
"Y 	c #FFE079",
"Z 	c #0C0F2D",
"` 	c #514135",
" .	c #957345",
"..	c #CC9E55",
"+.	c #EFBA61",
"@.	c #FEC767",
"#.	c #FFC968",
"$.	c #FFC867",
"%.	c #0C122D",
"&.	c #154E2A",
"*.	c #503F30",
"=.	c #926439",
"-.	c #C88543",
";.	c #EC9D4C",
">.	c #FCA74F",
",.	c #FEAA50",
"'.	c #FDA850",
").	c #C98544",
"!.	c #503E30",
"~.	c #0E252D",
"{.	c #196027",
"].	c #4B512B",
"^.	c #88612F",
"/.	c #BA7334",
"(.	c #DC8137",
"_.	c #EC873A",
":.	c #EF893A",
"<.	c #EF883A",
"[.	c #ED873A",
"}.	c #DD8137",
"|.	c #BC7234",
"1.	c #89602F",
"2.	c #4C4F2C",
"3.	c #14492A",
"4.	c #1F7722",
"5.	c #416D25",
"6.	c #736D27",
"7.	c #9D6C2A",
"8.	c #BA6B2C",
"9.	c #C86A2E",
"0.	c #CC6A2E",
"a.	c #CB6A2E",
"b.	c #C9692E",
"c.	c #BD692D",
"d.	c #A1692B",
"e.	c #766928",
"f.	c #426A26",
"g.	c #1C6C25",
"h.	c #248A1C",
"i.	c #35831F",
"j.	c #547B23",
"k.	c #736C27",
"l.	c #885B2B",
"m.	c #92502D",
"n.	c #954C2E",
"o.	c #934D2E",
"p.	c #8B552C",
"q.	c #786528",
"r.	c #5A7524",
"s.	c #378020",
"t.	c #23851E",
"u.	c #279518",
"v.	c #2B901A",
"w.	c #4B502B",
"x.	c #50372D",
"y.	c #512F2E",
"z.	c #512E2E",
"A.	c #51312E",
"B.	c #4E452C",
"C.	c #456228",
"D.	c #397C21",
"E.	c #2C8C1B",
"F.	c #154F2A",
"G.	c #154B2A",
"H.	c #175828",
"I.	c #1D6E24",
"J.	c #22831F",
"K.	c #289717",
"                                                                ",
"                                                                ",
"                                                                ",
"                                                                ",
"                                                                ",
"                                                                ",
"                                                                ",
"                                                                ",
"                . + @ # $ % & * * * = - ; > , '                 ",
"                ) ! ~ { ] ^ / / / / ( _ : < [ ,                 ",
"                } | 1 2 3 4 5 6 6 5 7 8 9 0 < >                 ",
"                a b c d e f g h h g i j k 9 : ;                 ",
"                l m n o p q r s s r t u j 8 _ -                 ",
"                v ( w x y z A B B A z y C D ( =                 ",
"                $ / E F G H I J J I H G F E / *                 ",
"                $ K L M N O P Q Q P O N M L K *                 ",
"                R S T U V W X Y Y X W V U T S Z                 ",
"                R `  ...+.@.#.$.$.#.@.+... .` %.                ",
"                &.*.=.-.;.>.,.'.'.,.>.;.).=.!.~.                ",
"                {.].^./.(._.:.<.<.:.[.}.|.1.2.3.                ",
"                4.5.6.7.8.9.0.a.a.0.b.c.d.e.f.g.                ",
"                h.i.j.k.l.m.n.n.n.n.o.p.q.r.s.t.                ",
"                u.v.i.5.w.x.y.z.z.z.A.B.C.D.E.+                 ",
"                  u.h.4.{.F.3.3.3.3.G.H.I.J.) K.                ",
"                                                                ",
"                                                                ",
"                                                                ",
"                                                                ",
"                                                                ",
"                                                                ",
"                                                                ",
"                                                                "};
