/* XPM */
static char * exit_xpm[] = {
"32 32 188 2",
"  	c #289816",
". 	c #289716",
"+ 	c #279616",
"@ 	c #248915",
"# 	c #1B5A28",
"$ 	c #14182E",
"% 	c #13172E",
"& 	c #165813",
"* 	c #238913",
"= 	c #218312",
"- 	c #1A6C0D",
"; 	c #166213",
"> 	c #14402B",
", 	c #2F1E34",
"' 	c #46273A",
") 	c #4D2A3C",
"! 	c #301E34",
"~ 	c #0E112E",
"{ 	c #0A3E12",
"] 	c #16620B",
"^ 	c #218311",
"/ 	c #269215",
"( 	c #226B26",
"_ 	c #1D1D30",
": 	c #1B1D2F",
"< 	c #1A1D2F",
"[ 	c #2F2334",
"} 	c #5B3541",
"| 	c #79434C",
"1 	c #824750",
"2 	c #5C3541",
"3 	c #302334",
"4 	c #1D1D2F",
"5 	c #19690D",
"6 	c #1F6810",
"7 	c #827040",
"8 	c #97674A",
"9 	c #9B694C",
"0 	c #A96E55",
"a 	c #B7745D",
"b 	c #BC7660",
"c 	c #906247",
"d 	c #1A4B0D",
"e 	c #19670E",
"f 	c #207024",
"g 	c #895D46",
"h 	c #CC8A5C",
"i 	c #E09964",
"j 	c #E19965",
"k 	c #E19964",
"l 	c #E29965",
"m 	c #E59A68",
"n 	c #E89C69",
"o 	c #EA9C6A",
"p 	c #15192E",
"q 	c #845745",
"r 	c #CF8861",
"s 	c #EA9A6B",
"t 	c #EB9B6B",
"u 	c #734743",
"v 	c #B66E5B",
"w 	c #CC7B65",
"x 	c #CB7A64",
"y 	c #744743",
"z 	c #15182E",
"A 	c #6A3D42",
"B 	c #A65D58",
"C 	c #B76660",
"D 	c #B1625E",
"E 	c #AC5F5D",
"F 	c #6B3D42",
"G 	c #6B3C42",
"H 	c #A65C58",
"I 	c #B1625F",
"J 	c #A2585B",
"K 	c #985259",
"L 	c #975259",
"M 	c #AF615E",
"N 	c #9B5459",
"O 	c #8E4C57",
"P 	c #8E4D57",
"Q 	c #8F4D57",
"R 	c #B2635F",
"S 	c #A2595B",
"T 	c #975258",
"U 	c #AF625E",
"V 	c #AA5E5D",
"W 	c #238020",
"X 	c #586736",
"Y 	c #90654D",
"Z 	c #AB605B",
"` 	c #AA5F5A",
" .	c #A95E5A",
"..	c #A95F5A",
"+.	c #AA5F5B",
"@.	c #AC605B",
"#.	c #9B5754",
"$.	c #60543B",
"%.	c #1D5E28",
"&.	c #278C16",
"*.	c #5E6F37",
"=.	c #7A4548",
"-.	c #7A4648",
";.	c #7B4548",
">.	c #7C4648",
",.	c #81494B",
"'.	c #874D4E",
").	c #894E4E",
"!.	c #734144",
"~.	c #256515",
"{.	c #248B15",
"].	c #298022",
"^.	c #2A652A",
"/.	c #29652A",
"(.	c #275C2B",
"_.	c #314030",
":.	c #512F3B",
"<.	c #663A44",
"[.	c #6C3E47",
"}.	c #322232",
"|.	c #263E2F",
"1.	c #295C2B",
"2.	c #207F11",
"3.	c #279415",
"4.	c #258F15",
"5.	c #218316",
"6.	c #20572A",
"7.	c #532F3E",
"8.	c #723F4A",
"9.	c #7B444E",
"0.	c #1D1B30",
"a.	c #135417",
"b.	c #218313",
"c.	c #218412",
"d.	c #216E1D",
"e.	c #4A5F56",
"f.	c #6D4B5B",
"g.	c #844955",
"h.	c #8B4852",
"i.	c #4F4A5E",
"j.	c #1C4920",
"k.	c #1A6D0D",
"l.	c #258E15",
"m.	c #25682D",
"n.	c #56626B",
"o.	c #7D7C8F",
"p.	c #8A7083",
"q.	c #8E5764",
"r.	c #8E4B55",
"s.	c #7E7B91",
"t.	c #585E6E",
"u.	c #223935",
"v.	c #196410",
"w.	c #258E14",
"x.	c #258D15",
"y.	c #2C653A",
"z.	c #76798B",
"A.	c #A1A1B4",
"B.	c #AB9EAE",
"C.	c #A78993",
"D.	c #A58087",
"E.	c #2E3246",
"F.	c #175D11",
"G.	c #248D14",
"H.	c #30663D",
"I.	c #8A8B97",
"J.	c #BEBECA",
"K.	c #CCC9D3",
"L.	c #CBC2CB",
"M.	c #C9BFC6",
"N.	c #333749",
"O.	c #8C8D98",
"P.	c #C1C2CE",
"Q.	c #D1D2DE",
"R.	c #D1D2DD",
"S.	c #343749",
"T.	c #2D653A",
"U.	c #7A7C8C",
"V.	c #A8ABBE",
"W.	c #B7BACE",
"X.	c #B7BACF",
"Y.	c #2F3246",
"Z.	c #29812B",
"`.	c #538662",
" +	c #719984",
".+	c #7AA08F",
"++	c #2A7333",
"@+	c #217F14",
"                                                                ",
"    . + + + + + + + + @ # $ $ $ $ $ % & * + + + + + + + + .     ",
"  . = - - - - - - - - ; > , ' ) ' ! ~ { ] - - - - - - - - ^ .   ",
"+ / ( _ _ _ _ _ _ _ : < [ } | 1 | 2 3 < : _ _ _ _ _ _ _ 4 5 /   ",
"= 6 7 8 8 8 8 8 8 8 8 8 9 0 a b a 0 9 8 8 8 8 8 8 8 8 8 c d e   ",
"f g h i j i i i i i i k l m n o n m l k i i i i i i j i h g p   ",
"f q r s t s s s s s s s s s s s s s s s s s s s s s t s r q p   ",
"f u v w w x x x x x x x x x x x x x x x x x x x x x w w v y z   ",
"f A B C D E E E E E E E E E E E E E E E E E E E E E D C B F z   ",
"f G H I J K L K K K K K K K K K K K K K K K K K L K J I H G z   ",
"f F B M N O O P P P P P P P P P P P P P P P P P O O N M B F z   ",
"f F B M N O O P P P P P P P P P P P P P P P P P O O N M B F z   ",
"f F B M N P P Q Q Q Q Q Q Q Q Q Q Q Q Q Q Q Q Q P P N M B F z   ",
"f F B M N P P Q Q Q Q Q Q Q Q Q Q Q Q Q Q Q Q Q P P N M B F z   ",
"f F B M N P P Q Q Q Q Q Q Q Q Q Q Q Q Q Q Q Q Q P P N M B F z   ",
"f F B M N P P Q Q Q Q Q Q Q Q Q Q Q Q Q Q Q Q Q P P N M B F z   ",
"f F B M N P P Q Q Q Q Q Q Q Q Q Q Q Q Q Q Q Q Q P P N M B F z   ",
"f F B M N O O P P P P P P P P P P P P P P P P P O O N M B F z   ",
"f F B M N O O P P P P P P P P P P P P P P P P P O O N M B F z   ",
"f F B R S T T T T T T T T T T T T T T T T T T T T T S R B F z   ",
"f A B C U V V V V V V V V V V V V V V V V V V V V V U C B F z   ",
"W X Y Z `  . . . . . . ...+.Z @.Z +... . . . . . . .` Z #.$.%.  ",
"/ &.*.=.-.;.;.;.;.;.;.=.>.,.'.).'.,.>.=.;.;.;.;.;.;.-.=.!.~.{.  ",
"  . ].^.^.^.^.^.^.^./.(._.:.<.[.<.:.}.|.1.^.^.^.^.^.^.^./.2..   ",
"    3.4.4.4.4.4.4.4.4.5.6.7.8.9.8.7.0.a.b.4.4.4.4.4.4.4.4.3.    ",
"                  3.c.d.e.f.g.h.g.f.i.j.k.c.3.                  ",
"                  l.m.n.o.p.q.r.q.p.s.t.u.v.w.                  ",
"                  x.y.z.A.B.C.D.C.B.A.z.E.F.G.                  ",
"                  x.H.I.J.K.L.M.L.K.J.I.N.F.G.                  ",
"                  x.H.O.P.Q.Q.R.Q.Q.P.O.S.F.G.                  ",
"                  x.T.U.V.W.X.W.X.W.V.U.Y.F.G.                  ",
"                  / Z.`. +.+.+.+.+.+ +`.++@+/                   "};
