/* XPM */
static char * player_xpm[] = {
"32 32 664 2",
"  	c #289816",
". 	c #279715",
"+ 	c #279516",
"@ 	c #269216",
"# 	c #258D17",
"$ 	c #248818",
"% 	c #24821B",
"& 	c #247E1D",
"* 	c #247C1D",
"= 	c #247B1D",
"- 	c #25821C",
"; 	c #25871B",
"> 	c #268D19",
", 	c #269217",
"' 	c #279416",
") 	c #279716",
"! 	c #279615",
"~ 	c #279515",
"{ 	c #258E16",
"] 	c #238618",
"^ 	c #1F751B",
"/ 	c #1C631E",
"( 	c #1D5227",
"_ 	c #1E432D",
": 	c #1E3E2E",
"< 	c #1E3B2F",
"[ 	c #1E3D2F",
"} 	c #1E422E",
"| 	c #1F502C",
"1 	c #206229",
"2 	c #227422",
"3 	c #23851A",
"4 	c #258D18",
"5 	c #279616",
"6 	c #269415",
"7 	c #258F15",
"8 	c #228317",
"9 	c #1F761A",
"0 	c #1D6021",
"a 	c #1B4A29",
"b 	c #1F3B35",
"c 	c #222E3F",
"d 	c #232A40",
"e 	c #232741",
"f 	c #232A41",
"g 	c #232E40",
"h 	c #233B3E",
"i 	c #244D3A",
"j 	c #23612F",
"k 	c #227423",
"l 	c #24821D",
"m 	c #258F18",
"n 	c #269316",
"o 	c #259015",
"p 	c #238715",
"q 	c #1F7519",
"r 	c #1B611E",
"s 	c #1D4D2A",
"t 	c #203A37",
"u 	c #283845",
"v 	c #303750",
"w 	c #313752",
"x 	c #323754",
"y 	c #323953",
"z 	c #313E51",
"A 	c #2F454E",
"B 	c #2A5340",
"C 	c #236230",
"D 	c #237425",
"E 	c #23861A",
"F 	c #258F17",
"G 	c #248C16",
"H 	c #207E16",
"I 	c #1D681D",
"J 	c #1A4F26",
"K 	c #214235",
"L 	c #283645",
"M 	c #2F394F",
"N 	c #353B58",
"O 	c #363C5A",
"P 	c #383D5B",
"Q 	c #363F59",
"R 	c #344157",
"S 	c #2F4A4C",
"T 	c #29543F",
"U 	c #25692F",
"V 	c #227D1F",
"W 	c #258A1A",
"X 	c #238816",
"Y 	c #1E7616",
"Z 	c #1C5B22",
"` 	c #1B3E30",
" .	c #263A42",
"..	c #343B58",
"+.	c #363D5C",
"@.	c #383E5D",
"#.	c #393E5D",
"$.	c #383F5D",
"%.	c #363F5C",
"&.	c #344456",
"*.	c #31494F",
"=.	c #295F3B",
"-.	c #227527",
";.	c #24861D",
">.	c #238616",
",.	c #1D7316",
"'.	c #1C5723",
").	c #1B3833",
"!.	c #2A3946",
"~.	c #393C58",
"{.	c #41425D",
"].	c #464761",
"^.	c #40435F",
"/.	c #3B405E",
"(.	c #393E5E",
"_.	c #383E5E",
":.	c #40485B",
"<.	c #384855",
"[.	c #2C5D3E",
"}.	c #227228",
"|.	c #24841E",
"1.	c #279316",
"2.	c #238516",
"3.	c #1D7216",
"4.	c #1B5523",
"5.	c #1B3533",
"6.	c #2C3947",
"7.	c #3F405B",
"8.	c #4F4B61",
"9.	c #595265",
"0.	c #4A4961",
"a.	c #3E415E",
"b.	c #363D5E",
"c.	c #4F4F60",
"d.	c #3E4A58",
"e.	c #2F5C40",
"f.	c #227128",
"g.	c #24831E",
"h.	c #228417",
"i.	c #1D7118",
"j.	c #185324",
"k.	c #143233",
"l.	c #313D49",
"m.	c #514B5F",
"n.	c #79666E",
"o.	c #947979",
"p.	c #76656F",
"q.	c #5E5567",
"r.	c #534E64",
"s.	c #4D4A63",
"t.	c #76646F",
"u.	c #937878",
"v.	c #786A6D",
"w.	c #50535D",
"x.	c #366042",
"y.	c #1F6F28",
"z.	c #23821E",
"A.	c #269115",
"B.	c #228318",
"C.	c #1D6F1B",
"D.	c #165126",
"E.	c #103033",
"F.	c #37414B",
"G.	c #625664",
"H.	c #A2817B",
"I.	c #CE9F8C",
"J.	c #A4827D",
"K.	c #826B71",
"L.	c #72616D",
"M.	c #695B6A",
"N.	c #816A71",
"O.	c #A3827D",
"P.	c #A2847A",
"Q.	c #615C61",
"R.	c #3D6345",
"S.	c #1D6D29",
"T.	c #22801F",
"U.	c #269117",
"V.	c #269215",
"W.	c #248B15",
"X.	c #227A19",
"Y.	c #21641F",
"Z.	c #27502E",
"`.	c #2E3C3E",
" +	c #494851",
".+	c #685965",
"++	c #A7847D",
"@+	c #D7A68F",
"#+	c #C79A89",
"$+	c #B99184",
"%+	c #B48E84",
"&+	c #B28D84",
"*+	c #C69989",
"=+	c #A7877C",
"-+	c #675E64",
";+	c #4A614C",
">+	c #316834",
",+	c #2B7A26",
"'+	c #268A19",
")+	c #279117",
"!+	c #228415",
"~+	c #24721B",
"{+	c #285B25",
"]+	c #3C5338",
"^+	c #544E4D",
"/+	c #605359",
"(+	c #6D5B66",
"_+	c #A6837C",
":+	c #D6A48D",
"<+	c #DAA68E",
"[+	c #DFAA91",
"}+	c #E9B296",
"|+	c #EEB699",
"1+	c #E0AA91",
"2+	c #A7857B",
"3+	c #6D5F66",
"4+	c #5C6255",
"5+	c #4E6944",
"6+	c #3A772F",
"7+	c #29841E",
"8+	c #278E19",
"9+	c #248C15",
"0+	c #1F7E14",
"a+	c #2A6B21",
"b+	c #3B5833",
"c+	c #686650",
"d+	c #9C7E6F",
"e+	c #886E6C",
"f+	c #715E68",
"g+	c #8D706F",
"h+	c #A57F74",
"i+	c #A98275",
"j+	c #B78D7C",
"k+	c #DBA88E",
"l+	c #F0B799",
"m+	c #DCA88F",
"n+	c #B88D7C",
"o+	c #8D716E",
"p+	c #716068",
"q+	c #837468",
"r+	c #948968",
"s+	c #608346",
"t+	c #348028",
"u+	c #2C8C1D",
"v+	c #238B15",
"w+	c #1E7B14",
"x+	c #2E6A24",
"y+	c #47583C",
"z+	c #867660",
"A+	c #CD9F86",
"B+	c #A6827A",
"C+	c #7A636B",
"D+	c #85696A",
"E+	c #8E6E68",
"F+	c #8B6C65",
"G+	c #9A776C",
"H+	c #D19F88",
"I+	c #F0B798",
"J+	c #D2A088",
"K+	c #9B776C",
"L+	c #856A69",
"M+	c #7A646A",
"N+	c #9F8275",
"O+	c #C29F7E",
"P+	c #798C53",
"Q+	c #3A7F2E",
"R+	c #2F8B1F",
"S+	c #248E15",
"T+	c #208214",
"U+	c #2E7223",
"V+	c #44613A",
"W+	c #847B5E",
"X+	c #CD9F85",
"Y+	c #AF887B",
"Z+	c #8D6E6F",
"`+	c #A58077",
" @	c #B48A7A",
".@	c #9A7569",
"+@	c #977366",
"@@	c #CC9A83",
"#@	c #EBB093",
"$@	c #CD9A83",
"%@	c #987367",
"&@	c #997569",
"*@	c #A58076",
"=@	c #8C706E",
"-@	c #A48774",
";@	c #BA9E77",
">@	c #738F4E",
",@	c #37852A",
"'@	c #2D8E1E",
")@	c #259115",
"!@	c #228814",
"~@	c #2C7A21",
"{@	c #3C6834",
"]@	c #727653",
"^@	c #B28C75",
"/@	c #A98073",
"(@	c #9D736F",
"_@	c #BC8C7D",
":@	c #CE9B85",
"<@	c #A57C6D",
"[@	c #977063",
"}@	c #C6907C",
"|@	c #E0A389",
"1@	c #C6917C",
"2@	c #987063",
"3@	c #A57B6C",
"4@	c #CD9B85",
"5@	c #BB8D7D",
"6@	c #9B756D",
"7@	c #9C836A",
"8@	c #9C9465",
"9@	c #628E43",
"0@	c #328A24",
"a@	c #2B911C",
"b@	c #269315",
"c@	c #277F1E",
"d@	c #2C6C2B",
"e@	c #4D643E",
"f@	c #735F53",
"g@	c #8E665D",
"h@	c #A86F67",
"i@	c #C68D7B",
"j@	c #D69F87",
"k@	c #AE806F",
"l@	c #9C6F63",
"m@	c #BC8271",
"n@	c #CE8C79",
"o@	c #9C7063",
"p@	c #AD7F6F",
"q@	c #C58E7B",
"r@	c #A57266",
"s@	c #847655",
"t@	c #627D44",
"u@	c #44862F",
"v@	c #2B8E1D",
"w@	c #299319",
"x@	c #248D16",
"y@	c #247D1D",
"z@	c #246827",
"A@	c #3A5836",
"B@	c #544944",
"C@	c #7A5854",
"D@	c #9F6963",
"E@	c #BD8475",
"F@	c #D29782",
"G@	c #BB8775",
"H@	c #B2806F",
"I@	c #C78A77",
"J@	c #D2907B",
"K@	c #D29781",
"L@	c #BC8575",
"M@	c #9C6C62",
"N@	c #726C4D",
"O@	c #486E38",
"P@	c #367E29",
"Q@	c #278C1B",
"R@	c #279218",
"S@	c #258F16",
"T@	c #228516",
"U@	c #22741D",
"V@	c #225E27",
"W@	c #365136",
"X@	c #4F4746",
"Y@	c #6A5354",
"Z@	c #866262",
"`@	c #A7746C",
" #	c #C38576",
".#	c #CD927E",
"+#	c #D79D85",
"@#	c #E2A48A",
"##	c #E8A78D",
"$#	c #D79E86",
"%#	c #CD937E",
"&#	c #A6756C",
"*#	c #856461",
"=#	c #65644F",
"-#	c #46663C",
";#	c #34762C",
">#	c #26851E",
",#	c #268E19",
"'#	c #248517",
")#	c #227719",
"!#	c #2C6925",
"~#	c #3B5C35",
"{#	c #5B604B",
"]#	c #7E6962",
"^#	c #8A7472",
"/#	c #957E81",
"(#	c #9E7775",
"_#	c #A8746D",
":#	c #BC8377",
"<#	c #CD9180",
"[#	c #D99C88",
"}#	c #E0A18D",
"|#	c #DA9C88",
"1#	c #CE9280",
"2#	c #BC8477",
"3#	c #A9746D",
"4#	c #9D7775",
"5#	c #947F80",
"6#	c #867D6E",
"7#	c #787C5B",
"8#	c #577B42",
"9#	c #3A7D2C",
"0#	c #2E8720",
"a#	c #268F17",
"b#	c #238915",
"c#	c #227918",
"d#	c #22651E",
"e#	c #3B5E31",
"f#	c #615E49",
"g#	c #927968",
"h#	c #C79C89",
"i#	c #C1A59E",
"j#	c #B6AAAE",
"k#	c #9B8286",
"l#	c #886366",
"m#	c #9B6867",
"n#	c #AE726D",
"o#	c #C1847C",
"p#	c #CC8E84",
"q#	c #9B6868",
"r#	c #9A8286",
"s#	c #B5AAAD",
"t#	c #BEA79C",
"u#	c #C19F85",
"v#	c #8A8761",
"w#	c #58753F",
"x#	c #3A7E29",
"y#	c #268819",
"z#	c #218314",
"A#	c #25711C",
"B#	c #305D2B",
"C#	c #5B6545",
"D#	c #947964",
"E#	c #B68B77",
"F#	c #D19B87",
"G#	c #B7958D",
"H#	c #9A8B90",
"I#	c #846B72",
"J#	c #76525A",
"K#	c #8C5D62",
"L#	c #A47072",
"M#	c #BE9292",
"N#	c #CDA5A4",
"O#	c #8D5D63",
"P#	c #846A71",
"Q#	c #B5948C",
"R#	c #AD9071",
"S#	c #89875B",
"T#	c #55833B",
"U#	c #2E8322",
"V#	c #298E1A",
"W#	c #1E7C14",
"X#	c #2A6A21",
"Y#	c #435839",
"Z#	c #7F705B",
"`#	c #CB9B82",
" $	c #D49A83",
".$	c #CC8D7B",
"+$	c #9F746E",
"@$	c #705A60",
"#$	c #694B54",
"$$	c #67424D",
"%$	c #825660",
"&$	c #9F747D",
"*$	c #C0A9B0",
"=$	c #D3C6CD",
"-$	c #C1A9B0",
";$	c #A0757D",
">$	c #835660",
",$	c #68424D",
"'$	c #694A54",
")$	c #9E746E",
"!$	c #CD997E",
"~$	c #C09F7A",
"{$	c #728A4F",
"]$	c #397F2C",
"^$	c #2D8C1E",
"/$	c #2B7220",
"($	c #416137",
"_$	c #7E775A",
":$	c #CCA082",
"<$	c #D6A086",
"[$	c #D19780",
"}$	c #9C7269",
"|$	c #674D51",
"1$	c #6A444D",
"2$	c #6F424E",
"3$	c #855863",
"4$	c #9D7882",
"5$	c #BDADB6",
"6$	c #CFCBD3",
"7$	c #BDAEB7",
"8$	c #9E7983",
"9$	c #70424E",
"0$	c #69454D",
"a$	c #674E51",
"b$	c #9A7268",
"c$	c #CE977E",
"d$	c #CB9E7E",
"e$	c #BBA176",
"f$	c #6F8E4B",
"g$	c #36842A",
"h$	c #2C8E1D",
"i$	c #2B7B1F",
"j$	c #3E6C34",
"k$	c #787F56",
"l$	c #C4A17E",
"m$	c #D3A485",
"n$	c #D2A184",
"o$	c #997265",
"p$	c #604245",
"q$	c #6B4049",
"r$	c #774350",
"s$	c #875A67",
"t$	c #9A7B86",
"u$	c #B7AFB9",
"v$	c #C8CDD6",
"w$	c #B8B0BA",
"x$	c #9B7B87",
"y$	c #875B67",
"z$	c #784450",
"A$	c #6B4348",
"B$	c #5F4744",
"C$	c #957362",
"D$	c #CDA081",
"E$	c #C3A27B",
"F$	c #AEA16F",
"G$	c #679246",
"H$	c #338926",
"I$	c #2B911B",
"J$	c #29861B",
"K$	c #317A26",
"L$	c #507F3B",
"M$	c #7A8A54",
"N$	c #83865A",
"O$	c #847F5C",
"P$	c #655D4B",
"Q$	c #473B3B",
"R$	c #573C43",
"S$	c #67414D",
"T$	c #745A68",
"U$	c #807785",
"V$	c #8C9DA9",
"W$	c #92B2BE",
"X$	c #93B2BF",
"Y$	c #8C9DAB",
"Z$	c #817787",
"`$	c #745C68",
" %	c #67464D",
".%	c #564841",
"+%	c #455038",
"@%	c #616C47",
"#%	c #7D8956",
"$%	c #778F50",
"%%	c #6B9348",
"&%	c #479030",
"*%	c #2D8F1E",
"=%	c #299419",
"-%	c #279017",
";%	c #27881B",
">%	c #2E8123",
",%	c #3A7A2F",
"'%	c #3E7033",
")%	c #406537",
"!%	c #384F35",
"~%	c #323933",
"{%	c #4B3C3E",
"]%	c #60424C",
"^%	c #695C67",
"/%	c #6C747F",
"(%	c #668B94",
"_%	c #6298A0",
":%	c #6397A1",
"<%	c #678A96",
"[%	c #6E7282",
"}%	c #695D68",
"|%	c #5D4B4B",
"1%	c #48513B",
"2%	c #305C2D",
"3%	c #346A2E",
"4%	c #3A7930",
"5%	c #37812B",
"6%	c #2C8F1D",
"7%	c #289417",
"8%	c #289616",
"9%	c #279018",
"0%	c #2A8C1B",
"a%	c #2E8820",
"b%	c #2E7F22",
"c%	c #2D7524",
"d%	c #30602A",
"e%	c #354C31",
"f%	c #5F4F41",
"g%	c #815451",
"h%	c #80645B",
"i%	c #767263",
"j%	c #587B65",
"k%	c #477F67",
"l%	c #48796A",
"m%	c #5C726B",
"n%	c #7E6969",
"o%	c #82645D",
"p%	c #785F4C",
"q%	c #57673A",
"r%	c #317228",
"s%	c #2E7D24",
"t%	c #2E8721",
"u%	c #2D8C1F",
"v%	c #2C911C",
"w%	c #289716",
"x%	c #269516",
"y%	c #218317",
"z%	c #297121",
"A%	c #34602C",
"B%	c #62613E",
"C%	c #87644C",
"D%	c #816D4C",
"E%	c #707448",
"F%	c #48753E",
"G%	c #327239",
"H%	c #336A3D",
"I%	c #4D6645",
"J%	c #7A6750",
"K%	c #836B4E",
"L%	c #7C7146",
"M%	c #597A35",
"N%	c #2F8422",
"O%	c #298B1B",
"P%	c #269416",
"Q%	c #248E17",
"R%	c #27821C",
"S%	c #2B7621",
"T%	c #40722C",
"U%	c #517135",
"V%	c #4D7832",
"W%	c #467F2F",
"X%	c #348428",
"Y%	c #2B8325",
"Z%	c #2B7B28",
"`%	c #36762D",
" &	c #4B7235",
".&	c #4F7634",
"+&	c #4B7C30",
"@&	c #3C8526",
"#&	c #2B8D1B",
"$&	c #289218",
"%&	c #268E18",
"&&	c #26881A",
"*&	c #2C821F",
"=&	c #307F23",
"-&	c #2E8420",
";&	c #2C8A1E",
">&	c #298F1A",
",&	c #278F19",
"'&	c #268A1A",
")&	c #29851D",
"!&	c #2E8022",
"~&	c #2F8222",
"{&	c #2D8820",
"]&	c #2B8E1C",
"                                                                ",
"        . . + @ # $ % & * = = = = * & - ; > , ' ) )             ",
"        ! ~ { ] ^ / ( _ : < < < < [ } | 1 2 3 4 + 5             ",
"    ) ) 6 7 8 9 0 a b c d e e e e f g h i j k l m n ) )         ",
"    ) 5 o p q r s t u v w x x x x x y z A B C D E F 5 )         ",
"    ) + G H I J K L M N O P P P P P P Q R S T U V W + 5         ",
"    5 ' X Y Z `  .y ..+.@.#.#.#.#.#.#.$.%.&.*.=.-.;.' 5         ",
"    5 ' >.,.'.).!.~.{.].^./.(._._.(./.^.].:.<.[.}.|.1.5         ",
"    5 1.2.3.4.5.6.7.8.9.0.a.(.b.b._.a.0.9.c.d.e.f.g.1.5         ",
"    5 n h.i.j.k.l.m.n.o.p.q.r.s.s.r.q.t.u.v.w.x.y.z.@ +         ",
") ) ~ A.B.C.D.E.F.G.H.I.J.K.L.M.M.L.N.O.I.P.Q.R.S.T.U.+ ) )     ",
") ) V.W.X.Y.Z.`. +.+++@+#+$+%+&+&+%+$+*+@+=+-+;+>+,+'+)+) )     ",
") 5 7 !+~+{+]+^+/+(+_+:+<+[+}+|+|+}+1+<+:+2+3+4+5+6+7+8+5 )     ",
") + 9+0+a+b+c+d+e+f+g+h+i+j+k+l+l+m+n+i+h+o+p+q+r+s+t+u++ )     ",
") + v+w+x+y+z+A+B+C+D+E+F+G+H+I+I+J+K+F+E+L+M+N+O+P+Q+R+' 5     ",
") 5 S+T+U+V+W+X+Y+Z+`+ @.@+@@@#@#@$@%@&@ @*@=@-@;@>@,@'@+ )     ",
") 5 )@!@~@{@]@^@/@(@_@:@<@[@}@|@|@1@2@3@4@5@6@7@8@9@0@a@5 )     ",
") ) b@S+c@d@e@f@g@h@i@j@k@l@m@n@n@m@o@p@j@q@r@s@t@u@v@w@5 )     ",
") 5 @ x@y@z@A@B@C@D@E@F@G@H@I@J@J@I@H@G@K@L@M@N@O@P@Q@R@5 )     ",
") + S@T@U@V@W@X@Y@Z@`@ #.#+#@#####@#$#%# #&#*#=#-#;#>#,#+ 5     ",
"~ o '#)#!#~#{#]#^#/#(#_#:#<#[#}#}#|#1#2#3#4#5#6#7#8#9#0#a#' ) ) ",
"b@b#c#d#e#f#g#h#i#j#k#l#m#n#o#p#p#o#n#q#l#r#s#t#u#v#w#x#y#U.5 ) ",
"A.z#A#B#C#D#E#F#G#H#I#J#K#L#M#N#N#M#L#O#J#P#H#Q#:@R#S#T#U#V#+ ) ",
"7 W#X#Y#Z#`# $.$+$@$#$$$%$&$*$=$=$-$;$>$,$'$@$)$.$!$~${$]$^$' ) ",
")@T+/$($_$:$<$[$}$|$1$2$3$4$5$6$6$7$8$3$9$0$a$b$c$d$e$f$g$h$+ ) ",
"b@!@i$j$k$l$m$n$o$p$q$r$s$t$u$v$v$w$x$y$z$A$B$C$D$E$F$G$H$I$5 ) ",
"~ 7 J$K$L$M$N$O$P$Q$R$S$T$U$V$W$X$Y$Z$`$ %.%+%@%#%$%%%&%*%=%) ) ",
") + -%;%>%,%'%)%!%~%{%]%^%/%(%_%:%<%[%}%|%1%2%3%4%5%H$6%7%8%    ",
") 5 ' 9%0%a%b%c%d%e%f%g%h%i%j%k%l%m%n%o%p%q%r%s%t%u%v%=%8%w%    ",
"    ) 5 x%n G y%z%A%B%C%D%E%F%G%H%I%J%K%L%M%N%O%n P%5 )         ",
"    ) ) 5 5 @ Q%R%S%T%U%V%W%X%Y%Z%`% &.&+&@&#&$&5 5 ) )         ",
"            5 + %&&&*&=&-&;&>&,&'&)&!&~&{&]&7%8%                "};
