/* XPM */
static char * wall_xpm[] = {
"37 32 292 2",
"  	c #289816",
". 	c #171024",
"+ 	c #170F25",
"@ 	c #170E25",
"# 	c #160D25",
"$ 	c #193723",
"% 	c #279317",
"& 	c #289717",
"* 	c #267F24",
"= 	c #21382F",
"- 	c #253D2D",
"; 	c #2A452B",
"> 	c #2D492A",
", 	c #213934",
"' 	c #28931B",
") 	c #279318",
"! 	c #289518",
"~ 	c #28941D",
"{ 	c #298C2A",
"] 	c #2C6342",
"^ 	c #2F5E40",
"/ 	c #3A6B3B",
"( 	c #447837",
"_ 	c #4A7F34",
": 	c #4B8034",
"< 	c #2C5946",
"[ 	c #2C6746",
"} 	c #299121",
"| 	c #279618",
"1 	c #279418",
"2 	c #279717",
"3 	c #278C1C",
"4 	c #244B39",
"5 	c #2B5B46",
"6 	c #31684D",
"7 	c #366D4F",
"8 	c #3D7A4A",
"9 	c #4A8A45",
"0 	c #579940",
"a 	c #5DA03D",
"b 	c #5EA23C",
"c 	c #5DA13C",
"d 	c #326051",
"e 	c #2B4F4A",
"f 	c #23393C",
"g 	c #1C242D",
"h 	c #289716",
"i 	c #1E2B34",
"j 	c #22383A",
"k 	c #284943",
"l 	c #2F5C4C",
"m 	c #386E50",
"n 	c #427F4E",
"o 	c #4C8E4A",
"p 	c #569C46",
"q 	c #5FA642",
"r 	c #63AC3F",
"s 	c #64AC3F",
"t 	c #1F3B33",
"u 	c #289617",
"v 	c #237225",
"w 	c #233A3E",
"x 	c #2A4B48",
"y 	c #2E5B4C",
"z 	c #356B4F",
"A 	c #407D4E",
"B 	c #4E904A",
"C 	c #589E45",
"D 	c #5EA642",
"E 	c #62AA40",
"F 	c #1E382F",
"G 	c #1D2730",
"H 	c #213638",
"I 	c #294A45",
"J 	c #305C4E",
"K 	c #346951",
"L 	c #397650",
"M 	c #42844D",
"N 	c #509448",
"O 	c #5BA044",
"P 	c #60A741",
"Q 	c #63AB3F",
"R 	c #235733",
"S 	c #27911A",
"T 	c #279617",
"U 	c #233B3E",
"V 	c #2F5C4B",
"W 	c #356B50",
"X 	c #387451",
"Y 	c #3A7A50",
"Z 	c #40824E",
"` 	c #488B4B",
" .	c #519548",
"..	c #599F44",
"+.	c #64AC3E",
"@.	c #599E44",
"#.	c #3A7B50",
"$.	c #1E3334",
"%.	c #216526",
"&.	c #305C4F",
"*.	c #39764F",
"=.	c #3A7B4F",
"-.	c #3B7C4F",
";.	c #3C7E4F",
">.	c #3E804E",
",.	c #43864D",
"'.	c #4F9349",
").	c #5BA143",
"!.	c #61A840",
"~.	c #62A940",
"{.	c #61A940",
"].	c #43854D",
"^.	c #3D7F4E",
"/.	c #3A7A4F",
"(.	c #226526",
"_.	c #256035",
":.	c #294A43",
"<.	c #356A51",
"[.	c #387551",
"}.	c #3B7E4F",
"|.	c #3B7D4F",
"1.	c #3A7C4F",
"2.	c #478A4C",
"3.	c #519648",
"4.	c #579C45",
"5.	c #589D45",
"6.	c #387650",
"7.	c #377350",
"8.	c #387550",
"9.	c #3A794F",
"0.	c #233B3C",
"a.	c #289519",
"b.	c #2A6A41",
"c.	c #3C7D4F",
"d.	c #45874C",
"e.	c #478A4B",
"f.	c #488A4B",
"g.	c #3B7B4F",
"h.	c #377151",
"i.	c #346851",
"j.	c #387450",
"k.	c #2B4F4B",
"l.	c #298D26",
"m.	c #299717",
"n.	c #29882E",
"o.	c #2D7145",
"p.	c #336551",
"q.	c #387350",
"r.	c #397850",
"s.	c #366E51",
"t.	c #326152",
"u.	c #336352",
"v.	c #377150",
"w.	c #2F5851",
"x.	c #2B5C48",
"y.	c #287636",
"z.	c #2F5C4F",
"A.	c #346752",
"B.	c #377250",
"C.	c #366D51",
"D.	c #367051",
"E.	c #315F52",
"F.	c #3C7F4F",
"G.	c #2F5751",
"H.	c #284747",
"I.	c #225B2F",
"J.	c #237C1C",
"K.	c #247A23",
"L.	c #26503F",
"M.	c #2E544F",
"N.	c #336552",
"O.	c #377251",
"P.	c #397750",
"Q.	c #356B51",
"R.	c #326252",
"S.	c #366F51",
"T.	c #336452",
"U.	c #377051",
"V.	c #3A7950",
"W.	c #264142",
"X.	c #1D2830",
"Y.	c #181224",
"Z.	c #181324",
"`.	c #1C262F",
" +	c #254041",
".+	c #2D534F",
"++	c #326053",
"@+	c #356A52",
"#+	c #315D52",
"$+	c #336652",
"%+	c #356C51",
"&+	c #1D272F",
"*+	c #2D524F",
"=+	c #305A53",
"-+	c #315F53",
";+	c #346652",
">+	c #326352",
",+	c #305B53",
"'+	c #264041",
")+	c #253F41",
"!+	c #2D544F",
"~+	c #387351",
"{+	c #315E52",
"]+	c #2D544E",
"^+	c #253F42",
"/+	c #204B2F",
"(+	c #27603E",
"_+	c #2E5650",
":+	c #326052",
"<+	c #287236",
"[+	c #1F4430",
"}+	c #289618",
"|+	c #299122",
"1+	c #2E664C",
"2+	c #316052",
"3+	c #2F5852",
"4+	c #29951C",
"5+	c #279519",
"6+	c #268E19",
"7+	c #29961A",
"8+	c #2D7241",
"9+	c #32614F",
"0+	c #37704F",
"a+	c #2E554F",
"b+	c #29961B",
"c+	c #28951A",
"d+	c #28931C",
"e+	c #275F3C",
"f+	c #2C5348",
"g+	c #32644D",
"h+	c #274543",
"i+	c #289718",
"j+	c #279219",
"k+	c #22582E",
"l+	c #25403E",
"m+	c #2C534A",
"n+	c #326350",
"o+	c #21562E",
"p+	c #268A18",
"q+	c #1C3F27",
"r+	c #203137",
"s+	c #264343",
"t+	c #37714F",
"u+	c #3B7C50",
"v+	c #279118",
"w+	c #20572B",
"x+	c #253F3E",
"y+	c #2C5248",
"z+	c #32634F",
"A+	c #225B2D",
"B+	c #274443",
"C+	c #2E584F",
"D+	c #307745",
"E+	c #36704D",
"F+	c #38754B",
"G+	c #38764B",
"H+	c #39774D",
"I+	c #39784F",
"J+	c #39774F",
"K+	c #38754D",
"L+	c #37744C",
"M+	c #336650",
"N+	c #29941C",
"O+	c #2E5C43",
"P+	c #2E5D3F",
"Q+	c #2E5D3E",
"R+	c #2E5E40",
"S+	c #316346",
"T+	c #34694D",
"U+	c #346A4D",
"V+	c #316446",
"W+	c #2F5F40",
"X+	c #2C7D37",
"Y+	c #29961C",
"Z+	c #213831",
"`+	c #20362E",
" @	c #1F342D",
".@	c #213A32",
"+@	c #27483F",
"@@	c #2E574C",
"#@	c #315E53",
"$@	c #1F352D",
"%@	c #214330",
"&@	c #258C19",
"*@	c #170C23",
"=@	c #1A1C2A",
"-@	c #22383B",
";@	c #2B4D4B",
">@	c #2F5653",
",@	c #2F5754",
"'@	c #2F5753",
")@	c #182C23",
"                          . + @ # # # # # @ + $ % &                       ",
"                        * = - ; > > > > > ; - = , ' & & &                 ",
"                ) ! ~ { ] ^ / ( _ : _ : _ ( / ^ < [ } | 1 &               ",
"              2 3 4 5 6 7 8 9 0 a b c b a 0 9 8 7 d e f g ) h             ",
"              i j k l m n o p q r s s s r q p o n m l k j t u h           ",
"            v w x y z A B C D E r s r s r E D C B A z y x w F ) &         ",
"          G H I J K L M N O P E Q Q Q Q Q E P O N M L K J I R S T &       ",
"        i U I V W X Y Z `  ...P Q +.s +.Q P @. .` Z #.X W V I U $.u       ",
"      %.j x &.W *.=.-.;.>.,.'.).!.~.{.~.!.).'.].^.-.=./.*.W &.x j (.h 2   ",
"      _.:.l <.[.=.}.|.|.1.^.2.3.4.5.4.5.4.3.2.;.6.7.8.9.=.[.<.l :.0.a.&   ",
"      b.l z L Y -.|.|.|.1.c.Z d.e.f.e.f.e.d.Z g.h.i.<.j.=.#.L z l k.l.m.  ",
"    n.o.p.q.-.|.|.|.|.-.9.r.9.-.;.;.;.;.;.;.;./.s.t.u.v.=.}.-.q.p.w.x.' h ",
"    y.z.A.8.|.}.|.|.|.9.B.C.D.r.1.1.1.1.1.1.|./.C.E.t.h.-.F.|.8.A.G.H.I.T ",
"J.K.L.M.N.O./.|.|.|.|.P.Q.R.K L |.}.|.|.|.|.|./.S.u.T.U.V.-./.O.N.M.W.X.Y.",
"Z.`. +.+++@+v.r.-.}.}.P.i.#+$+8.|.}.|.|.|.|.|.=.j.%+<.%+S.U.S.@+++.+ +`.Z.",
"Z.&+ +*+=+-+;+v./.}.|.P.K E.A.8.|.}.|.|.|.|.|.-./.P.v.K >+t.t.-+,+*+ +&+Z.",
"Z.&+'+*+,+-+N.C.j.L L B.<.N.%+P.|.}.|.|.|.|.|.|.|.-.P.%+u.t.t.-+,+*+'+&+Z.",
"Z.&+ +.+++@+C.%+i.A.A.K %+U.8./.|.}.|.|.|.|.|.|.}.}.=.8.U.S.S.@+++.+ +&+Z.",
"Z.&+)+!+N.~+6.C.R.{+{+N.D.r.-.|.-.=.=.=.-.|.|.|.-.=././.=.=./.O.N.!+)+&+Z.",
"Z.`.)+]+;+8.9.q.Q.i.i.C.8.-.}.|./.8.v.8./.|.|.-.P.B.q.r.|.F.|.8.;+]+)+`.Z.",
"Z.&+^+!+;+j.=./.P.L L r./.|.}.|.P.%+N.%+P.|.}.=.v.A.i.q.-.}.-.X $+!+^+&+Z.",
"Y./+(+_+;+j.-.}.|.|.|.|.|.|.}.|.L i.{+i.L |.}./.s.:+R.h.=.}.-.j.;+_+<+[+Y.",
"& }+|+1+;+j.|.}.}.}.}.|.|.|.}.|.L A.{+A.L }.F./.s.2+t.U.=.;.|.j.;+3+4+5+6+",
"  & 7+8+9+0+9.-.|.|.|.|.|.|.|.|.P.<.R.K j././.P.C.u.$+B.=.|.9.0+9+a+b+c+  ",
"  h d+e+f+g+U.r.-.}.|.|.|.|.|.|.9.B.%+Q.%+C.C.C.Q.Q.U.P.=.r.U.g+f+h+i+&   ",
"  & j+k+l+m+n+U.9.|.|.|.|.|.|.|.-./.L S.N.:+E.>+Q.j.V.=.9.U.n+m+l+o+      ",
"  h p+q+r+s+m+g+t+r.u+|.}.}.}.|.}.}.1.j.<.T.u.A.U.V.u+r.t+g+m+s+r+        ",
"    T v+w+r+x+y+z+S.r.|.}.}.}.|.}.}.|.9.8.B.O.X r.u+V.U.z+y+x+r+          ",
"        u % A+B+C+D+E+F+G+G+H+I+9.V.V.r.r.J+K+L+F+F+E+M+C+B+o+            ",
"            & & 4+N+O+P+Q+R+S+T+%+C.C.C.C.U+V+W+Q+P+O+X+Y+}+              ",
"          h & & & a.Z+`+ @.@+@@@#+#@{+-+{+@@+@.@$@`+%@& m.&               ",
"                  &@. . *@=@-@;@>@,@'@,@>@;@-@=@*@. )@)                   "};
